<svg width="28" height="28" viewBox="0 0 28 28" fill="none" xmlns="http://www.w3.org/2000/svg">
<g filter="url(#filter0_d_43_419)">
<path d="M12.9932 1.001H13.0839C15.2709 1.001 17.3173 1.61372 19.0702 2.68023L19.0166 2.64924C20.8417 3.74274 22.3195 5.25705 23.3564 7.06922L23.3866 7.12719C24.4011 8.89538 25 11.0214 25 13.2904C25 18.6939 21.6025 23.2858 16.8774 24.943L16.7926 24.969C16.7311 24.989 16.6609 25 16.5887 25C16.4307 25 16.2843 24.946 16.1663 24.8561L16.1683 24.8571C16.0434 24.7421 15.9654 24.5762 15.9654 24.3913C15.9654 24.3863 15.9654 24.3813 15.9654 24.3773V24.3783C15.9654 24.3463 15.968 23.9378 15.9732 23.1528C15.9784 22.3679 15.981 21.6502 15.981 20.9998C15.9878 20.9249 15.9917 20.8389 15.9917 20.7509C15.9917 19.9593 15.6766 19.2436 15.1684 18.7269C15.7713 18.6659 16.3156 18.564 16.8443 18.422L16.7701 18.439C17.3291 18.2791 17.8168 18.0662 18.2694 17.7973L18.2391 17.8143C18.7347 17.5344 19.1541 17.1786 19.4994 16.7568L19.5053 16.7498C19.8682 16.274 20.152 15.7143 20.3247 15.1055L20.3334 15.0706C20.5373 14.3879 20.6544 13.6032 20.6544 12.7906C20.6544 12.7456 20.6544 12.6996 20.6534 12.6547V12.6617C20.6534 12.6397 20.6544 12.6147 20.6544 12.5897C20.6544 11.3423 20.1842 10.2078 19.4165 9.36117L19.4194 9.36417C19.5833 8.92437 19.6779 8.4166 19.6779 7.88584C19.6779 7.23714 19.5365 6.62342 19.2839 6.07267L19.2946 6.09866C19.1824 6.07667 19.0546 6.06368 18.9229 6.06368C18.5971 6.06368 18.2899 6.14164 18.0167 6.27958L18.0284 6.27458C17.4744 6.48449 17.0003 6.72238 16.5536 7.00025L16.5906 6.97826L15.9966 7.36208C15.0972 7.0982 14.0642 6.94627 12.9971 6.94627C11.9299 6.94627 10.8969 7.0982 9.91757 7.38207L9.99659 7.36208C9.83011 7.2448 9.60868 7.10054 9.3323 6.92928C8.96846 6.71538 8.53829 6.50848 8.09153 6.33455L8.02715 6.31257C7.74134 6.15864 7.40286 6.06868 7.04292 6.06868C6.92196 6.06868 6.80296 6.07867 6.68786 6.09866L6.70054 6.09666C6.45862 6.62042 6.31718 7.23514 6.31718 7.88385C6.31718 8.4146 6.4118 8.92337 6.58543 9.39215L6.57568 9.36317C5.80995 10.2068 5.34076 11.3413 5.34076 12.5887C5.34076 12.6137 5.34076 12.6397 5.34173 12.6647V12.6607C5.34076 12.6996 5.34076 12.7446 5.34076 12.7906C5.34076 13.5992 5.45781 14.3809 5.67631 15.1165L5.66168 15.0596C5.84604 15.7023 6.126 16.261 6.49081 16.7518L6.48204 16.7388C6.82735 17.1736 7.24484 17.5314 7.71793 17.8003L7.73939 17.8113C8.16079 18.0632 8.64949 18.2761 9.16355 18.425L9.20842 18.436C9.66298 18.561 10.2073 18.6629 10.7643 18.7199L10.8091 18.7239C10.3887 19.1517 10.1088 19.7234 10.0444 20.3611L10.0434 20.3731C9.84149 20.4741 9.60641 20.556 9.36157 20.609L9.34108 20.613C9.09137 20.664 8.80556 20.693 8.51195 20.693C8.49049 20.693 8.46903 20.693 8.44757 20.693H8.4505C8.06617 20.685 7.71306 20.557 7.4214 20.3451L7.42725 20.3491C7.06536 20.0903 6.77272 19.7544 6.56788 19.3636L6.56105 19.3486C6.36791 19.0127 6.11332 18.7349 5.8119 18.522L5.80312 18.516C5.58364 18.347 5.32515 18.2151 5.04617 18.1361L5.03056 18.1321L4.71842 18.0842C4.69598 18.0822 4.66965 18.0812 4.64331 18.0812C4.50675 18.0812 4.37701 18.1092 4.25898 18.1581L4.26581 18.1551C4.18257 18.2031 4.15656 18.2644 4.18777 18.3391C4.22582 18.425 4.27264 18.499 4.32921 18.5639L4.32824 18.5629C4.38774 18.6349 4.45505 18.6979 4.52821 18.7529L4.53113 18.7549L4.64038 18.8348C4.91644 18.9828 5.14372 19.1887 5.31637 19.4375L5.32027 19.4435C5.50658 19.6804 5.67046 19.9483 5.80215 20.2352L5.8119 20.2592L5.96797 20.627C6.09966 21.0288 6.33864 21.3647 6.65079 21.6076L6.65567 21.6116C6.9483 21.8454 7.30141 22.0134 7.68672 22.0893L7.70232 22.0913C8.02422 22.1553 8.3988 22.1953 8.78117 22.2033H8.788C8.8319 22.2053 8.88262 22.2053 8.93432 22.2053C9.18891 22.2053 9.43863 22.1843 9.68249 22.1433L9.65615 22.1473L10.0151 22.0833C10.0151 22.4891 10.0177 22.9616 10.0229 23.5007C10.0281 24.0398 10.0307 24.3306 10.0307 24.3733V24.3873C10.0307 24.5722 9.95269 24.7381 9.82783 24.8531C9.71175 24.942 9.56544 24.996 9.40644 24.996C9.33328 24.996 9.26305 24.985 9.19769 24.964L9.20257 24.965C4.39457 23.2768 1 18.6849 1 13.2804C1 11.0134 1.59698 8.88938 2.63973 7.06422L2.60852 7.12219C3.67566 5.25205 5.15347 3.73775 6.92196 2.67523L6.97854 2.64425C8.67485 1.61072 10.7194 1 12.9025 1H12.998H12.9932V1.001ZM5.54072 18.6589C5.57194 18.5843 5.53552 18.5203 5.43147 18.467C5.32743 18.435 5.2598 18.4457 5.22858 18.499C5.19737 18.5736 5.23378 18.6376 5.33783 18.6909C5.43147 18.7549 5.49911 18.7442 5.54072 18.6589ZM6.02552 19.2037C6.09836 19.1503 6.08795 19.0651 5.99431 18.9478C5.89026 18.8518 5.80702 18.8358 5.74459 18.8998C5.67176 18.9531 5.68217 19.0384 5.77581 19.1557C5.87921 19.2603 5.96245 19.276 6.02552 19.2027V19.2037ZM6.49374 19.9233C6.58738 19.8487 6.58738 19.7474 6.49374 19.6195C6.4105 19.4809 6.32206 19.4489 6.22842 19.5235C6.13478 19.5768 6.13478 19.6728 6.22842 19.8114C6.32206 19.95 6.4105 19.9873 6.49374 19.9233ZM7.14924 20.596C7.23248 20.5107 7.21167 20.4094 7.08682 20.2922C6.96196 20.1642 6.85791 20.1482 6.77467 20.2442C6.68103 20.3295 6.70184 20.4308 6.8371 20.548C6.96196 20.676 7.06601 20.6906 7.14924 20.592V20.596ZM8.03983 20.9958C8.07105 20.8786 8.00341 20.7933 7.83694 20.74C7.68086 20.6973 7.58202 20.7346 7.5404 20.8519C7.49878 20.9692 7.56641 21.0491 7.74329 21.0918C7.89937 21.1564 7.99821 21.1244 8.03983 20.9958ZM9.02406 21.0758C9.02406 20.9372 8.93562 20.8786 8.75874 20.8999C8.59226 20.8999 8.50902 20.9585 8.50902 21.0758C8.50902 21.2144 8.59746 21.273 8.77435 21.2517C8.94082 21.2524 9.02406 21.1931 9.02406 21.0758ZM9.93026 20.9159C9.90945 20.7986 9.8158 20.7506 9.64933 20.7719C9.48285 20.8039 9.41002 20.8839 9.43083 21.0118C9.45163 21.1398 9.54528 21.1824 9.71176 21.1398C9.87823 21.0971 9.95042 21.0225 9.93026 20.9159Z" fill="white"/>
</g>
<defs>
<filter id="filter0_d_43_419" x="0" y="0" width="28" height="28" filterUnits="userSpaceOnUse" color-interpolation-filters="sRGB">
<feFlood flood-opacity="0" result="BackgroundImageFix"/>
<feColorMatrix in="SourceAlpha" type="matrix" values="0 0 0 0 0 0 0 0 0 0 0 0 0 0 0 0 0 0 127 0" result="hardAlpha"/>
<feOffset dx="1" dy="1"/>
<feGaussianBlur stdDeviation="1"/>
<feComposite in2="hardAlpha" operator="out"/>
<feColorMatrix type="matrix" values="0 0 0 0 0 0 0 0 0 0 0 0 0 0 0 0 0 0 0.18 0"/>
<feBlend mode="normal" in2="BackgroundImageFix" result="effect1_dropShadow_43_419"/>
<feBlend mode="normal" in="SourceGraphic" in2="effect1_dropShadow_43_419" result="shape"/>
</filter>
</defs>
</svg>
