<svg width="28" height="28" viewBox="0 0 28 28" fill="none" xmlns="http://www.w3.org/2000/svg">
<g filter="url(#filter0_d_43_423)">
<path d="M22.004 1H22.044C22.858 1 23.594 1.337 24.119 1.88L24.12 1.881C24.663 2.407 25 3.142 25 3.957V4.004V4.002V22.004V22.044C25 22.858 24.663 23.594 24.12 24.119L24.119 24.12C23.593 24.663 22.858 25 22.043 25C22.029 25 22.015 25 22 25H22.002H4C3.987 25 3.971 25 3.956 25C3.142 25 2.406 24.663 1.881 24.12L1.88 24.119C1.337 23.593 1 22.858 1 22.043C1 22.029 1 22.015 1 22V22.002V4C1 3.988 1 3.974 1 3.96C1 3.146 1.337 2.41 1.88 1.885L1.881 1.884C2.407 1.341 3.142 1.004 3.957 1.004H4H3.998L22.004 1ZM11.449 19.162V5.55C11.449 5.546 11.449 5.541 11.449 5.537C11.449 5.142 11.285 4.786 11.021 4.533C10.768 4.272 10.414 4.11 10.023 4.11C10.016 4.11 10.009 4.11 10.003 4.11H5.557C5.553 4.11 5.548 4.11 5.544 4.11C5.149 4.11 4.793 4.274 4.54 4.538C4.276 4.792 4.111 5.148 4.111 5.542V5.549V19.161C4.11 19.176 4.11 19.193 4.11 19.211C4.11 19.603 4.275 19.956 4.539 20.205L4.54 20.206C4.798 20.454 5.149 20.606 5.536 20.606H5.559H10.005H10.026C10.413 20.606 10.764 20.453 11.023 20.205C11.288 19.955 11.453 19.602 11.453 19.21C11.453 19.192 11.453 19.175 11.452 19.158V19.161L11.449 19.162ZM21.897 13.162V5.551C21.897 5.547 21.897 5.542 21.897 5.538C21.897 5.143 21.733 4.787 21.469 4.534C21.215 4.269 20.859 4.105 20.465 4.105C20.46 4.105 20.456 4.105 20.451 4.105H16.005C16.001 4.105 15.996 4.105 15.992 4.105C15.597 4.105 15.241 4.269 14.988 4.533C14.723 4.787 14.559 5.143 14.559 5.537V5.551V13.158C14.558 13.173 14.558 13.19 14.558 13.208C14.558 13.6 14.723 13.953 14.987 14.202L14.988 14.203C15.246 14.451 15.597 14.603 15.984 14.603H16.007H20.453H20.474C20.861 14.603 21.212 14.45 21.471 14.202C21.736 13.952 21.901 13.599 21.901 13.207C21.901 13.191 21.901 13.175 21.9 13.159V13.161L21.897 13.162Z" fill="white"/>
</g>
<defs>
<filter id="filter0_d_43_423" x="0" y="0" width="28" height="28" filterUnits="userSpaceOnUse" color-interpolation-filters="sRGB">
<feFlood flood-opacity="0" result="BackgroundImageFix"/>
<feColorMatrix in="SourceAlpha" type="matrix" values="0 0 0 0 0 0 0 0 0 0 0 0 0 0 0 0 0 0 127 0" result="hardAlpha"/>
<feOffset dx="1" dy="1"/>
<feGaussianBlur stdDeviation="1"/>
<feComposite in2="hardAlpha" operator="out"/>
<feColorMatrix type="matrix" values="0 0 0 0 0 0 0 0 0 0 0 0 0 0 0 0 0 0 0.18 0"/>
<feBlend mode="normal" in2="BackgroundImageFix" result="effect1_dropShadow_43_423"/>
<feBlend mode="normal" in="SourceGraphic" in2="effect1_dropShadow_43_423" result="shape"/>
</filter>
</defs>
</svg>
