<svg width="17" height="17" viewBox="0 0 17 17" fill="none" xmlns="http://www.w3.org/2000/svg">
<path d="M1.7 8.52997C1.7 4.76143 4.7447 1.70599 8.5 1.70599C12.2553 1.70599 15.3 4.76143 15.3 8.52997C15.3 9.12109 15.2609 9.69004 15.1759 10.236H13.6C12.7976 10.236 12.042 10.6155 11.56 11.2596L9.88295 13.5029C9.4843 14.0369 9.3806 14.7364 9.6084 15.3633C10.1056 16.7358 11.804 17.5513 13.1597 16.5652C16.0132 14.4916 17 11.6588 17 8.52997C17 3.81887 13.1946 0 8.5 0C3.80545 0 0 3.81887 0 8.52997C0 11.6588 0.98685 14.4916 3.8403 16.5652C5.19605 17.5513 6.89435 16.7358 7.3916 15.3633C7.6194 14.7364 7.5157 14.0369 7.11705 13.5029L5.44 11.2596C4.95805 10.6155 4.2024 10.236 3.4 10.236H1.8241C1.7391 9.69004 1.7 9.12109 1.7 8.52997Z" fill="white"/>
</svg>
