<svg width="21" height="22" viewBox="0 0 21 22" fill="none" xmlns="http://www.w3.org/2000/svg">
<mask id="mask0_5_148" style="mask-type:luminance" maskUnits="userSpaceOnUse" x="0" y="0" width="21" height="22">
<path d="M20.9805 0.0195312V21.9805H0.0195312V0.0195312H20.9805Z" fill="white" stroke="white" stroke-width="0.04"/>
</mask>
<g mask="url(#mask0_5_148)">
<mask id="mask1_5_148" style="mask-type:luminance" maskUnits="userSpaceOnUse" x="-7" y="-8" width="36" height="38">
<path d="M27.9806 -7.31381V29.3131H-6.98035V-7.31381H27.9806Z" fill="white" stroke="white" stroke-width="0.04"/>
</mask>
<g mask="url(#mask1_5_148)">
<mask id="mask2_5_148" style="mask-type:luminance" maskUnits="userSpaceOnUse" x="0" y="-13" width="35" height="35">
<path d="M20.9805 0.0195312V21.9805H0.0195312V0.0195312H20.9805Z" fill="white" stroke="white" stroke-width="0.04"/>
<path d="M30.5789 -11.709C31.5333 -12.1936 32.7032 -12.449 33.5935 -11.5567C34.4899 -10.6581 34.2235 -9.46263 33.7263 -8.48441C33.4781 -7.99609 33.1733 -7.56393 32.9304 -7.25394C32.8091 -7.09907 32.7031 -6.97428 32.6277 -6.8887C32.5903 -6.84628 32.5604 -6.81337 32.5398 -6.79105C32.5295 -6.77985 32.5208 -6.77136 32.5154 -6.76566C32.5127 -6.76281 32.5109 -6.76025 32.5095 -6.75882L32.5085 -6.75687H32.5076L26.5037 -0.341827V-0.340851L26.4978 -0.334991C26.4935 -0.330411 26.4867 -0.323275 26.4783 -0.314484C26.4614 -0.296909 26.4366 -0.271133 26.4041 -0.239288C26.3388 -0.175393 26.2431 -0.0861858 26.1228 0.0146179C25.8819 0.216474 25.5411 0.464967 25.1423 0.651337C24.7436 0.837659 24.2878 0.962092 23.8152 0.916962C23.343 0.871863 22.8528 0.657066 22.3845 0.164032C21.5283 -0.737627 21.6529 -1.80103 21.9949 -2.64359C22.1658 -3.06479 22.3908 -3.42987 22.573 -3.68948C22.6641 -3.8192 22.7449 -3.92231 22.8025 -3.99319C22.8312 -4.02851 22.854 -4.05584 22.8699 -4.07425C22.8778 -4.08342 22.8833 -4.09106 22.8875 -4.09573L22.8943 -4.10257L28.8962 -10.5166H28.8972L28.8982 -10.5186C28.8996 -10.5199 28.9023 -10.5218 28.905 -10.5244C28.9106 -10.5297 28.9186 -10.5378 28.9294 -10.5479C28.9512 -10.5682 28.9836 -10.5978 29.0251 -10.6348C29.1084 -10.7088 29.229 -10.8128 29.3796 -10.9317C29.6813 -11.1696 30.1025 -11.4671 30.5789 -11.709Z" fill="black" stroke="white" stroke-width="0.04"/>
<path d="M17.4104 7.53619V10.21H15.4895V7.53619H17.4104Z" fill="white" stroke="white" stroke-width="0.04"/>
</mask>
<g mask="url(#mask2_5_148)">
<path d="M10.5001 2.29666C8.86505 2.29666 7.50012 3.6927 7.50012 5.46365V9.09354C7.50023 10.8644 8.86512 12.2596 10.5001 12.2596C12.1351 12.2596 13.5 10.8644 13.5001 9.09354V5.46365C13.5001 3.6927 12.1352 2.29666 10.5001 2.29666Z" fill="white" stroke="white"/>
<path d="M16.6251 9.09334C16.6251 12.6372 13.8829 15.51 10.5001 15.51C7.11737 15.51 4.37512 12.6372 4.37512 9.09334" stroke="white" stroke-width="2" stroke-linecap="round"/>
<path d="M10.1251 15.5517V19.1347H10.8751V15.5517H10.1251Z" fill="white" stroke="white"/>
<path d="M13.1251 18.76H7.87512C7.68993 18.76 7.50012 18.9249 7.50012 19.177C7.50029 19.4288 7.69001 19.593 7.87512 19.593H13.1251C13.3102 19.593 13.5 19.4288 13.5001 19.177C13.5001 18.9249 13.3103 18.76 13.1251 18.76Z" fill="white" stroke="white"/>
</g>
</g>
</g>
</svg>
