<svg width="21" height="21" viewBox="0 0 21 21" fill="none" xmlns="http://www.w3.org/2000/svg">
<mask id="mask0_5_207" style="mask-type:luminance" maskUnits="userSpaceOnUse" x="0" y="0" width="21" height="21">
<path d="M21 0H0V21H21V0Z" fill="white"/>
</mask>
<g mask="url(#mask0_5_207)">
<mask id="mask1_5_207" style="mask-type:luminance" maskUnits="userSpaceOnUse" x="0" y="0" width="21" height="21">
<path d="M0 0H21V21H0V0Z" fill="white"/>
</mask>
<g mask="url(#mask1_5_207)">
<path d="M9.23825 0.95725C8.84187 1.00887 8.62138 1.42188 8.68175 1.81737C8.8375 2.83763 8.51813 3.74412 7.82163 4.03288C7.12512 4.32163 6.258 3.90688 5.64725 3.07563C5.41013 2.75363 4.96125 2.61713 4.6445 2.86038C3.97425 3.37488 3.37488 3.97425 2.86038 4.6445C2.61713 4.96125 2.75363 5.41013 3.07563 5.64725C3.90688 6.258 4.32163 7.12512 4.03288 7.82163C3.74412 8.51813 2.83763 8.8375 1.81737 8.68175C1.42188 8.62138 1.00887 8.84187 0.95725 9.23825C0.903 9.65125 0.875 10.0721 0.875 10.5C0.875 10.9279 0.903 11.3488 0.95725 11.7618C1.00887 12.1581 1.42188 12.3786 1.81737 12.3182C2.83763 12.1625 3.74412 12.4819 4.03288 13.1784C4.32163 13.8749 3.90688 14.7411 3.07563 15.3527C2.75363 15.5899 2.61713 16.0379 2.86038 16.3555C3.37488 17.0257 3.97425 17.6251 4.6445 18.1396C4.96125 18.3829 5.41013 18.2464 5.64725 17.9244C6.258 17.0931 7.12512 16.6784 7.82163 16.9671C8.51813 17.2559 8.8375 18.1624 8.68175 19.1826C8.62138 19.5781 8.84187 19.9911 9.23825 20.0427C9.65125 20.097 10.0721 20.125 10.5 20.125C10.9279 20.125 11.3488 20.097 11.7618 20.0427C12.1581 19.9911 12.3786 19.5781 12.3182 19.1826C12.1625 18.1624 12.4827 17.2559 13.1793 16.9671C13.8758 16.6784 14.742 17.0931 15.3527 17.9244C15.5899 18.2464 16.0379 18.3829 16.3555 18.1396C17.0257 17.6251 17.6251 17.0257 18.1396 16.3555C18.3829 16.0379 18.2464 15.5899 17.9244 15.3527C17.0931 14.742 16.6784 13.8749 16.9671 13.1784C17.2559 12.4819 18.1624 12.1625 19.1826 12.3182C19.5781 12.3786 19.9911 12.1581 20.0427 11.7618C20.097 11.3488 20.125 10.9279 20.125 10.5C20.125 10.0721 20.097 9.65125 20.0427 9.23825C19.9911 8.84187 19.5781 8.62138 19.1826 8.68175C18.1624 8.8375 17.2559 8.51813 16.9671 7.82163C16.6784 7.12512 17.0931 6.258 17.9244 5.64725C18.2464 5.41013 18.3829 4.96125 18.1396 4.6445C17.6251 3.97425 17.0257 3.37488 16.3555 2.86038C16.0379 2.61713 15.5908 2.75363 15.3536 3.07563C14.7429 3.90688 13.8758 4.32163 13.1793 4.03288C12.4827 3.74412 12.1634 2.83763 12.3191 1.81737C12.3795 1.42188 12.1581 1.00887 11.7618 0.95725C11.3488 0.903 10.9279 0.875 10.5 0.875C10.0721 0.875 9.65125 0.903 9.23825 0.95725ZM14 10.5C14 12.4329 12.4329 14 10.5 14C8.56712 14 7 12.4329 7 10.5C7 8.56712 8.56712 7 10.5 7C12.4329 7 14 8.56712 14 10.5Z" fill="white"/>
</g>
</g>
</svg>
