<svg width="18" height="18" viewBox="0 0 18 18" fill="none" xmlns="http://www.w3.org/2000/svg">
<path d="M13.9455 9.31077C14.4143 9.77894 15.0497 10.0419 15.7122 10.0419C16.3747 10.0419 17.0101 9.77894 17.4788 9.31077L17.5038 9.28577C17.5802 9.20789 17.6229 9.10317 17.6229 8.99411C17.6229 8.88504 17.5802 8.78033 17.5038 8.70244L8.92051 0.119107C8.84262 0.0427626 8.7379 0 8.62884 0C8.51978 0 8.41506 0.0427626 8.33717 0.119107L8.31217 0.144107C7.844 0.612858 7.58104 1.24827 7.58104 1.91077C7.58104 2.57328 7.844 3.20869 8.31217 3.67744L8.62884 3.99411L6.19551 6.42744L3.15384 6.14411C2.90973 6.12166 2.66367 6.15333 2.4332 6.23688C2.20273 6.32042 1.99353 6.45378 1.82051 6.62744L1.30384 7.15244C1.22573 7.22991 1.16374 7.32208 1.12143 7.42363C1.07912 7.52518 1.05734 7.6341 1.05734 7.74411C1.05734 7.85412 1.07912 7.96304 1.12143 8.06459C1.16374 8.16614 1.22573 8.2583 1.30384 8.33577L9.28717 16.3191C9.36464 16.3972 9.45681 16.4592 9.55836 16.5015C9.65991 16.5438 9.76883 16.5656 9.87884 16.5656C9.98885 16.5656 10.0978 16.5438 10.1993 16.5015C10.3009 16.4592 10.393 16.3972 10.4705 16.3191L10.9955 15.7941C11.1692 15.6211 11.3025 15.4119 11.3861 15.1814C11.4696 14.9509 11.5013 14.7049 11.4788 14.4608L11.1955 11.4274L13.6288 8.99411L13.9455 9.31077ZM5.35384 14.0524C5.39734 14.0962 5.43056 14.1492 5.4511 14.2074C5.47163 14.2656 5.47898 14.3277 5.4726 14.3891C5.46622 14.4505 5.44628 14.5097 5.41421 14.5625C5.38214 14.6152 5.33875 14.6602 5.28717 14.6941L0.995506 17.5524C0.915657 17.6059 0.819769 17.6302 0.72409 17.6211C0.62841 17.612 0.538822 17.57 0.470506 17.5024L0.120506 17.1524C0.0528999 17.0841 0.0109899 16.9945 0.00187751 16.8989C-0.00723486 16.8032 0.0170109 16.7073 0.0705065 16.6274L2.92884 12.3274C2.96277 12.2759 3.00774 12.2325 3.06049 12.2004C3.11325 12.1683 3.17247 12.1484 3.23387 12.142C3.29528 12.1356 3.35733 12.143 3.41555 12.1635C3.47377 12.1841 3.5267 12.2173 3.57051 12.2608L5.35384 14.0441V14.0524Z" fill="#00AFF0"/>
</svg>
