<svg width="26" height="38" viewBox="0 0 26 38" fill="none" xmlns="http://www.w3.org/2000/svg">
<path d="M-2.43112e-05 33.85V3.65C-2.43112e-05 1.25 1.44998 -4.76837e-07 3.64998 -4.76837e-07C5.84998 -4.76837e-07 7.29998 1.25 7.29998 3.65V13.55H7.39998C8.84998 11.2 11.35 9.85 14.6 9.85C22.3 9.85 25.85 16.4 25.85 23.4C25.85 32.85 20.5 37.3 14.4 37.3C10.85 37.3 7.89998 35.8 6.69998 32.7H6.59998V33.85C6.59998 36.1 5.44998 37.3 3.29998 37.3C1.04998 37.3 -2.43112e-05 36.1 -2.43112e-05 33.85ZM18.55 23.65C18.55 20.25 17.4 15.55 12.75 15.55C8.29998 15.5 6.89998 19.9 6.89998 23.65C6.89998 27.8 8.49998 31.6 12.75 31.6C16.65 31.5 18.55 27.95 18.55 23.65Z" fill="white"/>
</svg>
