<svg width="491" height="193" viewBox="0 0 491 193" fill="none" xmlns="http://www.w3.org/2000/svg">
<path fill-rule="evenodd" clip-rule="evenodd" d="M269.735 9H76V56.5379C81.3135 57.2154 86.4348 58.5197 91.2898 60.3756C96.8378 44.4292 111.85 33 129.5 33C141.252 33 151.835 38.0675 159.234 46.1618C171.445 28.5257 191.646 17 214.5 17C227.811 17 240.223 20.9103 250.68 27.6606C255.565 20.1168 262.083 13.7296 269.735 9Z" fill="#B2E7FA"/>
<mask id="mask0_2_30" style="mask-type:alpha" maskUnits="userSpaceOnUse" x="76" y="9" width="207" height="109">
<path fill-rule="evenodd" clip-rule="evenodd" d="M282.633 118C280.144 117.184 277.727 116.211 275.393 115.093C274.929 116.075 274.442 117.044 273.934 118H282.633ZM76 9H269.735C262.083 13.7296 255.565 20.1168 250.68 27.6606C240.223 20.9103 227.811 17 214.5 17C191.646 17 171.445 28.5257 159.234 46.1618C151.835 38.0675 141.252 33 129.5 33C111.85 33 96.8378 44.4292 91.2898 60.3756C86.4348 58.5197 81.3135 57.2154 76 56.5379V9Z" fill="#B2E7FA"/>
</mask>
<g mask="url(#mask0_2_30)">
<ellipse cx="129.5" cy="74" rx="56.5" ry="57" fill="#8EDCF8"/>
<ellipse cx="129.5" cy="74" rx="48.5" ry="49" fill="#55CAF5"/>
</g>
</svg>
