<svg width="340" height="340" viewBox="0 0 340 340" fill="none" xmlns="http://www.w3.org/2000/svg">
<path fill-rule="evenodd" clip-rule="evenodd" d="M340 85C340 38.0558 301.944 5.59804e-07 255 0C229.701 0 206.984 11.0525 191.413 28.5924C184.428 27.5436 177.277 27 170 27C91.0233 27 27 91.0233 27 170C27 177.277 27.5436 184.428 28.5924 191.413C11.0525 206.984 0 229.701 0 255C-5.59804e-07 301.944 38.0558 340 85 340C110.299 340 133.016 328.947 148.587 311.408C155.572 312.456 162.723 313 170 313C248.977 313 313 248.977 313 170C313 162.723 312.456 155.572 311.408 148.587C328.947 133.016 340 110.299 340 85ZM203.604 152.707C207.029 148.55 209 143.217 209 137C209 119 196.25 111.5 176 111.5H174.212H142V162.5H180.25C190.132 162.5 198.489 158.913 203.604 152.707ZM170.145 80H187.75C222.25 80 250 97 250 137C250 149.029 246.931 159.91 241.078 168.865C230.995 184.292 212.65 194 187.5 194H144.195H142V242.75C142 255 134 263.25 121.5 263.25C109 263.25 101 255 101 242.75V171.504V104C101 85.75 110.5 80 125 80H170.145Z" fill="white"/>
</svg>
