<svg width="990" height="315" viewBox="0 0 990 315" fill="none" xmlns="http://www.w3.org/2000/svg">
<mask id="mask0_42_238" style="mask-type:alpha" maskUnits="userSpaceOnUse" x="0" y="0" width="990" height="315">
<path fill-rule="evenodd" clip-rule="evenodd" d="M343.998 202.75V141.5C343.998 115.25 319.748 104 284.748 104C262.669 104 246.483 110.413 236.904 118.647C236.39 128.369 233.808 137.256 229.317 144.87C231.977 148.526 236.542 151 242.248 151C248.38 151 252.053 147.423 256.292 143.294C262.077 137.661 268.917 131 284.498 131C296.748 131 307.498 135.5 307.498 146C307.498 156.5 300.498 158.5 291.748 159.5L269.498 162C241.498 165.25 218.498 173.75 218.498 204C218.498 227 238.998 241.25 259.748 241.25C278.998 241.25 295.498 235.75 309.748 220C310.248 231.25 315.498 241.25 331.248 241.25C339.998 241.25 347.748 235.5 347.748 227.25C347.748 225.062 347.205 223.201 346.533 220.894C345.438 217.136 343.998 212.198 343.998 202.75ZM307.498 176.5V190.75C307.498 204.25 295.248 217.25 275.248 217.25C262.748 217.25 254.998 210.5 254.998 202.25C254.998 191.25 263.248 186.5 278.498 184.25L291.748 182.25L292.042 182.198C296.336 181.442 303.589 180.165 307.498 176.5Z" fill="black"/>
<path fill-rule="evenodd" clip-rule="evenodd" d="M343.998 202.75V141.5C343.998 115.25 319.748 104 284.748 104C262.669 104 246.483 110.413 236.904 118.647C236.39 128.369 233.808 137.256 229.317 144.87C231.977 148.526 236.542 151 242.248 151C248.38 151 252.053 147.423 256.292 143.294C262.077 137.661 268.917 131 284.498 131C296.748 131 307.498 135.5 307.498 146C307.498 156.5 300.498 158.5 291.748 159.5L269.498 162C241.498 165.25 218.498 173.75 218.498 204C218.498 227 238.998 241.25 259.748 241.25C278.998 241.25 295.498 235.75 309.748 220C310.248 231.25 315.498 241.25 331.248 241.25C339.998 241.25 347.748 235.5 347.748 227.25C347.748 225.062 347.205 223.201 346.533 220.894C345.438 217.136 343.998 212.198 343.998 202.75ZM307.498 190.75V176.5C303.589 180.165 296.336 181.442 292.042 182.198L291.748 182.25L278.498 184.25C263.248 186.5 254.998 191.25 254.998 202.25C254.998 210.5 262.748 217.25 275.248 217.25C295.248 217.25 307.498 204.25 307.498 190.75Z" fill="black"/>
<path fill-rule="evenodd" clip-rule="evenodd" d="M0 0H990V315H0L0 0ZM931.014 179.5H848.514C848.514 198.75 861.014 212.75 882.264 212.75C898.138 212.75 904.849 206.752 910.523 201.681C914.679 197.967 918.278 194.75 924.514 194.75C933.264 194.75 939.514 202.25 939.514 209C939.514 231 904.264 241.25 882.264 241.25C849.799 241.25 830.199 227.27 820.241 208.918C814.005 230.958 789.278 241.25 765.486 241.25C737.961 241.25 714.262 230.988 707.156 217.137V223C707.156 232.75 703.156 241.25 688.906 241.25C674.656 241.25 670.656 232.75 670.656 223V122.25C670.656 112.5 674.656 104 688.906 104C703.156 104 707.156 112.5 707.156 122.25V131.76C714.412 111.731 738.568 104 759.736 104C787.486 104 815.486 115 815.486 131.75C815.486 140.25 809.736 147.75 800.236 147.75C793.96 147.75 790.351 144.501 786.312 140.864C781.181 136.245 775.356 131 762.486 131C749.736 131 741.486 134.5 741.486 142.25C741.486 150.75 749.736 152.75 760.986 155.25L776.236 158.75C788.832 161.633 802.901 165.991 812.014 174.673C812.146 132.354 837.875 104 881.014 104C923.014 104 947.014 133.75 947.014 163.75C947.014 176.25 943.264 179.5 931.014 179.5ZM688.906 53.75C678.406 53.75 669.906 62.25 669.906 72.75C669.906 83.25 678.406 91.75 688.906 91.75C699.406 91.75 707.906 83.25 707.906 72.75C707.906 62.25 699.406 53.75 688.906 53.75ZM667.074 73V224C667.074 235.25 661.824 241.25 650.574 241.25C639.824 241.25 634.074 235.25 634.074 224V218.25H633.574C627.574 233.75 612.824 241.25 595.074 241.25C568.71 241.25 545.147 224.625 539.242 189.598V202.75C539.242 212.198 540.682 217.136 541.777 220.894C542.449 223.201 542.992 225.062 542.992 227.25C542.992 235.5 535.242 241.25 526.492 241.25C510.742 241.25 505.492 231.25 504.992 220C490.742 235.75 474.242 241.25 454.992 241.25C434.242 241.25 413.742 227 413.742 204C413.742 173.75 436.742 165.25 464.742 162L486.992 159.5C495.742 158.5 502.742 156.5 502.742 146C502.742 135.5 491.992 131 479.742 131C464.161 131 457.321 137.661 451.537 143.294C447.297 147.423 443.624 151 437.492 151C429.132 151 423.222 145.69 422.163 139.131C420.134 139.728 417.982 140 415.83 140H409.33C394.58 140 386.58 150.25 386.58 180.5V223C386.58 232.75 382.58 241.25 368.33 241.25C354.08 241.25 350.08 232.75 350.08 223V121C350.08 110 357.33 104 366.58 104C375.83 104 383.08 110 383.08 121V135H383.58C387.83 119.75 396.08 104 413.83 104C423.732 104 431.41 109.561 433.353 117.65C443.056 109.901 458.813 104 479.992 104C514.992 104 539.242 115.25 539.242 141.5V155.003C544.138 126.974 561.828 104 594.074 104C610.324 104 622.824 110.75 630.074 122.5H630.574V73C630.574 61 637.824 54.75 648.824 54.75C659.824 54.75 667.074 61 667.074 73ZM343.998 141.5V202.75C343.998 212.198 345.438 217.136 346.533 220.894C347.205 223.201 347.748 225.062 347.748 227.25C347.748 235.5 339.998 241.25 331.248 241.25C315.498 241.25 310.248 231.25 309.748 220C295.498 235.75 278.998 241.25 259.748 241.25C238.998 241.25 218.498 227 218.498 204C218.498 173.75 241.498 165.25 269.498 162L291.748 159.5C300.498 158.5 307.498 156.5 307.498 146C307.498 135.5 296.748 131 284.498 131C268.917 131 262.077 137.661 256.292 143.294C252.053 147.423 248.38 151 242.248 151C236.542 151 231.977 148.526 229.317 144.87C219.54 161.45 200.718 172 174.5 172H129V220.75C129 233 121 241.25 108.5 241.25C96 241.25 88 233 88 220.75V82C88 63.75 97.5 58 112 58H174.75C209.25 58 237 75 237 115C237 116.228 236.968 117.444 236.904 118.647C246.483 110.413 262.669 104 284.748 104C319.748 104 343.998 115.25 343.998 141.5Z" fill="#D9D9D9"/>
<path d="M129 89.5V140.5H167.25C183.75 140.5 196 130.5 196 115C196 97 183.25 89.5 163 89.5H129Z" fill="#D9D9D9"/>
<path d="M307.498 190.75V176.5C303.589 180.165 296.336 181.442 292.042 182.198L291.748 182.25L278.498 184.25C263.248 186.5 254.998 191.25 254.998 202.25C254.998 210.5 262.748 217.25 275.248 217.25C295.248 217.25 307.498 204.25 307.498 190.75Z" fill="#D9D9D9"/>
<path d="M502.742 190.75V176.5C498.833 180.165 491.58 181.442 487.286 182.198L486.992 182.25L473.742 184.25C458.492 186.5 450.242 191.25 450.242 202.25C450.242 210.5 457.992 217.25 470.492 217.25C490.492 217.25 502.742 204.25 502.742 190.75Z" fill="#D9D9D9"/>
<path d="M574.324 173C574.324 194.5 583.824 212.25 603.324 212.75C624.574 212.75 632.574 193.75 632.574 173C632.574 154.25 625.574 132.25 603.324 132.5C580.074 132.5 574.324 156 574.324 173Z" fill="#D9D9D9"/>
<path d="M763.986 215.75C776.986 215.75 785.236 210 785.236 202.5C785.236 193.71 778.013 191.918 766.14 188.973L766.109 188.966C765.497 188.814 764.873 188.659 764.236 188.5L742.736 183.25C726.054 179.128 712.298 172.85 707.156 158.486V199.795C709.422 195.914 713.523 193.25 719.736 193.25C726.557 193.25 730.705 197.469 735.408 202.253C741.567 208.517 748.678 215.75 763.986 215.75Z" fill="#D9D9D9"/>
<path d="M848.514 158.5H912.514C910.514 141.75 898.014 129.5 881.764 129.5C863.514 129.5 852.514 140.75 848.514 158.5Z" fill="#D9D9D9"/>
</mask>
<g mask="url(#mask0_42_238)">
<path d="M2 122.5C2 64.234 49.234 17 107.5 17C125.211 17 141.919 21.3717 156.588 29.0957C174.452 20.0772 194.642 15 216 15C258.426 15 296.175 35.0234 320.313 66.1064C335.81 66.7964 350.454 70.8048 363.546 77.4336C382.844 41.4729 420.807 17 464.5 17C489.077 17 511.86 24.751 530.517 37.9375C557.769 14.8982 593.018 1 631.5 1C683.387 1 729.374 26.2576 757.837 65.1191C762.955 64.3822 768.185 64 773.5 64C798.02 64 820.663 72.1045 838.875 85.7744C853.849 76.4119 871.551 71 890.5 71C944.348 71 988 114.652 988 168.5C988 208.709 963.662 243.216 928.938 258.127C916.957 281.209 892.83 297 865 297C844.49 297 825.981 288.416 812.875 274.666C800.654 279.402 787.373 282 773.5 282C759.923 282 746.913 279.512 734.908 274.967C707.338 299.255 671.135 314 631.5 314C588.641 314 549.799 296.762 521.543 268.86C506.026 279.061 487.448 285 467.5 285C444.251 285 422.875 276.937 406.028 263.467C389.392 287.92 361.329 304 329.5 304C301.413 304 276.249 291.476 259.294 271.73C245.723 276.44 231.154 279 216 279C190.264 279 166.233 271.627 145.922 258.88C136.541 268.798 123.245 275 108.5 275C80.0573 275 57 251.943 57 223.5V215.148C24.2424 197.257 2 162.482 2 122.5ZM9 122.5C9 161.285 31.4165 194.834 64 210.898V223.5C64 248.077 83.9233 268 108.5 268C123.333 268 136.472 260.743 144.558 249.585C164.807 263.714 189.436 272 216 272C232.081 272 247.453 268.964 261.573 263.433C277.199 283.84 301.813 297 329.5 297C361.757 297 389.841 279.137 404.401 252.764C420.818 268.401 443.038 278 467.5 278C488.097 278 507.105 271.195 522.396 259.71C549.674 288.815 588.463 307 631.5 307C670.905 307 706.75 291.754 733.457 266.84C745.751 272.093 759.286 275 773.5 275C788.2 275 802.173 271.89 814.799 266.293C826.72 280.77 844.782 290 865 290C891.006 290 913.445 274.727 923.837 252.662C957.321 239.388 981 206.709 981 168.5C981 118.518 940.482 78 890.5 78C871.156 78 853.229 84.0694 838.521 94.4072C820.869 79.7873 798.211 71 773.5 71C767.065 71 760.769 71.5956 754.664 72.7354C727.7 33.6304 682.593 8 631.5 8C592.746 8 557.436 22.7458 530.875 46.9326C512.598 32.5677 489.55 24 464.5 24C420.966 24 383.476 49.8784 366.573 87.0908C352.435 78.6183 336.018 73.5561 318.461 73.043L316.758 73.0078C294.003 42.0743 257.346 22 216 22C194.463 22 174.198 27.4469 156.508 37.0381C142.075 28.7436 125.341 24 107.5 24C53.1 24 9 68.1 9 122.5Z" fill="white"/>
<path fill-rule="evenodd" clip-rule="evenodd" d="M268.752 260.357C266.398 261.454 264.004 262.48 261.573 263.432C258.38 259.261 255.561 254.788 253.169 250.062C258.011 253.958 263.226 257.41 268.752 260.357Z" fill="white"/>
<path fill-rule="evenodd" clip-rule="evenodd" d="M261.573 263.432C258.38 259.261 255.561 254.788 253.169 250.062C258.011 253.958 263.226 257.41 268.752 260.357C266.398 261.454 264.004 262.48 261.573 263.432Z" fill="white"/>
<path d="M64 78.5V210.899C31.4164 194.834 9 161.285 9 122.5C9 68.1 53.1 24 107.5 24C125.341 24 142.075 28.7434 156.508 37.0379C150.856 40.102 145.467 43.5891 140.384 47.4568C132.3 39.1556 121.002 34 108.5 34C83.9233 34 64 53.9233 64 78.5Z" fill="white"/>
<path fill-rule="evenodd" clip-rule="evenodd" d="M64 78.5C64 53.9233 83.9233 34 108.5 34C121.002 34 132.3 39.1556 140.384 47.4568C110.373 70.2888 91 106.382 91 147C91 174.566 99.9233 200.049 115.039 220.716C112.551 220.904 110.037 221 107.5 221C91.8849 221 77.1184 217.366 64 210.899V78.5Z" fill="white"/>
<path fill-rule="evenodd" clip-rule="evenodd" d="M153 78.5V209.884C141.493 215.888 128.653 219.685 115.039 220.716C99.9233 200.049 91 174.566 91 147C91 106.382 110.373 70.2888 140.384 47.4568C148.191 55.474 153 66.4254 153 78.5Z" fill="white"/>
<path fill-rule="evenodd" clip-rule="evenodd" d="M64 223.5V210.899C77.1184 217.366 91.8849 221 107.5 221C110.037 221 112.551 220.904 115.039 220.716C123.212 231.89 133.195 241.657 144.557 249.585C136.471 260.743 123.333 268 108.5 268C83.9233 268 64 248.077 64 223.5Z" fill="white"/>
<path fill-rule="evenodd" clip-rule="evenodd" d="M153 223.5C153 233.244 149.869 242.256 144.557 249.585C133.195 241.657 123.212 231.89 115.039 220.716C128.653 219.685 141.493 215.888 153 209.884V223.5Z" fill="white"/>
<path fill-rule="evenodd" clip-rule="evenodd" d="M153 209.884V78.5C153 66.4254 148.191 55.474 140.384 47.4568C145.467 43.5891 150.856 40.102 156.508 37.0379C186.083 54.0343 206 85.9412 206 122.5C206 160.486 184.497 193.45 153 209.884Z" fill="white"/>
<path fill-rule="evenodd" clip-rule="evenodd" d="M253.169 250.062C255.561 254.788 258.38 259.261 261.573 263.432C247.453 268.963 232.081 272 216 272C189.436 272 164.807 263.714 144.557 249.585C149.869 242.256 153 233.244 153 223.5V209.884C184.497 193.45 206 160.486 206 122.5C206 85.9412 186.083 54.0343 156.508 37.0379C174.198 27.4467 194.463 22 216 22C257.346 22 294.004 42.0741 316.758 73.0078C316.339 73.0026 315.92 73 315.5 73C260.548 73 216 117.548 216 172.5C216 203.856 230.504 231.824 253.169 250.062Z" fill="white"/>
<path d="M253.169 250.062C230.504 231.824 216 203.856 216 172.5C216 117.548 260.548 73 315.5 73C315.92 73 316.339 73.0026 316.758 73.0078C328.166 88.516 336.079 106.754 339.337 126.56C336.109 126.19 332.827 126 329.5 126C282.28 126 244 164.28 244 211.5C244 225.374 247.304 238.476 253.169 250.062Z" fill="white"/>
<path fill-rule="evenodd" clip-rule="evenodd" d="M341 147C341 197.186 311.424 240.465 268.752 260.357C263.226 257.41 258.011 253.958 253.169 250.062C247.304 238.476 244 225.374 244 211.5C244 164.28 282.28 126 329.5 126C332.827 126 336.109 126.19 339.337 126.56C340.431 133.211 341 140.039 341 147Z" fill="white"/>
<path fill-rule="evenodd" clip-rule="evenodd" d="M261.573 263.432C264.004 262.48 266.398 261.454 268.752 260.357C282.689 267.788 298.603 272 315.5 272C345.819 272 372.971 258.439 391.221 237.052C395.02 242.774 399.447 248.044 404.402 252.764C389.841 279.137 361.757 297 329.5 297C301.812 297 277.199 283.839 261.573 263.432Z" fill="white"/>
<path fill-rule="evenodd" clip-rule="evenodd" d="M339.337 126.56C345.445 127.259 351.357 128.603 357.004 130.52C357.001 130.846 357 131.173 357 131.5C357 154.308 364.103 175.457 376.217 192.855C377.333 209.124 382.702 224.225 391.221 237.052C372.971 258.439 345.819 272 315.5 272C298.603 272 282.689 267.788 268.752 260.357C311.424 240.465 341 197.186 341 147C341 140.039 340.431 133.211 339.337 126.56Z" fill="white"/>
<path d="M357.004 130.52C367.435 134.062 376.96 139.562 385.143 146.582C379.285 158.645 376 172.189 376 186.5C376 188.636 376.073 190.755 376.217 192.855C364.103 175.457 357 154.308 357 131.5C357 131.173 357.001 130.846 357.004 130.52Z" fill="white"/>
<path fill-rule="evenodd" clip-rule="evenodd" d="M316.758 73.0078C334.957 73.2333 351.979 78.3445 366.573 87.0903C360.551 100.348 357.143 115.043 357.004 130.52C351.357 128.603 345.445 127.259 339.337 126.56C336.079 106.754 328.166 88.516 316.758 73.0078Z" fill="white"/>
<path fill-rule="evenodd" clip-rule="evenodd" d="M385.143 146.582C376.96 139.562 367.435 134.062 357.004 130.52C357.143 115.043 360.551 100.348 366.573 87.0903C381.128 95.8129 393.269 108.151 401.754 122.863C395.037 129.801 389.408 137.799 385.143 146.582Z" fill="white"/>
<path d="M412.938 192.751C408.845 174.455 398.888 158.374 385.143 146.582C389.408 137.799 395.037 129.801 401.754 122.863C410.179 137.472 415 154.423 415 172.5C415 179.439 414.29 186.212 412.938 192.751Z" fill="white"/>
<path fill-rule="evenodd" clip-rule="evenodd" d="M376.217 192.855C376.073 190.755 376 188.636 376 186.5C376 172.189 379.285 158.645 385.143 146.582C398.888 158.374 408.845 174.455 412.938 192.751C410.959 202.323 407.604 211.393 403.09 219.745C392.62 212.445 383.511 203.33 376.217 192.855Z" fill="white"/>
<path fill-rule="evenodd" clip-rule="evenodd" d="M415 211.5C415 216.54 414.564 221.478 413.728 226.278C410.048 224.303 406.497 222.12 403.09 219.745C407.604 211.393 410.959 202.323 412.938 192.751C414.288 198.784 415 205.059 415 211.5Z" fill="white"/>
<path fill-rule="evenodd" clip-rule="evenodd" d="M404.402 252.764C399.447 248.044 395.02 242.774 391.221 237.052C395.756 231.737 399.742 225.939 403.09 219.745C406.497 222.12 410.048 224.303 413.728 226.278C412.081 235.731 408.881 244.65 404.402 252.764Z" fill="white"/>
<path fill-rule="evenodd" clip-rule="evenodd" d="M376.217 192.855C383.511 203.33 392.62 212.445 403.09 219.745C399.742 225.939 395.756 231.737 391.221 237.052C382.702 224.225 377.333 209.124 376.217 192.855Z" fill="white"/>
<path fill-rule="evenodd" clip-rule="evenodd" d="M502.014 232.273C507.756 242.196 514.607 251.398 522.396 259.709C507.104 271.195 488.097 278 467.5 278C443.038 278 420.818 268.401 404.402 252.764C408.881 244.65 412.081 235.731 413.728 226.278C428.849 234.396 446.137 239 464.5 239C477.695 239 490.334 236.623 502.014 232.273Z" fill="white"/>
<path fill-rule="evenodd" clip-rule="evenodd" d="M493.932 98.8757C486.251 116.877 482 136.692 482 157.5C482 184.74 489.285 210.278 502.014 232.273C490.334 236.623 477.695 239 464.5 239C446.137 239 428.849 234.396 413.728 226.278C414.564 221.478 415 216.54 415 211.5C415 205.059 414.288 198.784 412.938 192.751C414.29 186.212 415 179.439 415 172.5C415 154.423 410.179 137.472 401.754 122.863C418.388 105.681 441.697 95 467.5 95C476.69 95 485.564 96.3549 493.932 98.8757Z" fill="white"/>
<path fill-rule="evenodd" clip-rule="evenodd" d="M530.875 46.9327C515.108 61.2902 502.424 78.9743 493.932 98.8757C485.564 96.3549 476.69 95 467.5 95C441.697 95 418.388 105.681 401.754 122.863C393.269 108.151 381.128 95.8129 366.573 87.0903C383.476 49.8779 420.966 24 464.5 24C489.55 24 512.598 32.5678 530.875 46.9327Z" fill="white"/>
<path fill-rule="evenodd" clip-rule="evenodd" d="M493.932 98.8757C502.424 78.9743 515.108 61.2902 530.875 46.9327C555.916 66.6145 572 97.179 572 131.5C572 150.124 567.264 167.641 558.931 182.914C557.398 143.146 530.486 109.887 493.932 98.8757Z" fill="white"/>
<path fill-rule="evenodd" clip-rule="evenodd" d="M482 157.5C482 136.692 486.251 116.877 493.932 98.8757C530.486 109.887 557.398 143.146 558.931 182.914C546.603 205.509 526.402 223.191 502.014 232.273C489.285 210.278 482 184.74 482 157.5Z" fill="white"/>
<path fill-rule="evenodd" clip-rule="evenodd" d="M522.396 259.709C514.607 251.398 507.756 242.196 502.014 232.273C526.402 223.191 546.603 205.509 558.931 182.914C558.977 184.104 559 185.299 559 186.5C559 216.437 544.623 243.016 522.396 259.709Z" fill="white"/>
<path fill-rule="evenodd" clip-rule="evenodd" d="M631.5 307C588.463 307 549.674 288.815 522.396 259.709C544.623 243.016 559 216.437 559 186.5C559 185.299 558.977 184.104 558.931 182.914C567.264 167.641 572 150.124 572 131.5C572 97.179 555.916 66.6145 530.875 46.9327C557.436 22.7458 592.746 8 631.5 8C682.593 8 727.7 33.6306 754.664 72.7356C707.329 81.5727 671.5 123.102 671.5 173C671.5 215.119 697.029 251.275 733.457 266.84C706.75 291.754 670.905 307 631.5 307Z" fill="white"/>
<path fill-rule="evenodd" clip-rule="evenodd" d="M773.5 275C759.286 275 745.751 272.092 733.457 266.84C762.71 239.55 781 200.661 781 157.5C781 126.026 771.274 96.8245 754.664 72.7356C760.769 71.5959 767.065 71 773.5 71C798.211 71 820.869 79.787 838.521 94.4069C815.224 110.78 800 137.862 800 168.5C800 179.268 801.881 189.597 805.332 199.177C801.901 207.092 800 215.824 800 225C800 240.681 805.553 255.065 814.799 266.293C802.174 271.89 788.2 275 773.5 275Z" fill="white"/>
<path d="M671.5 173C671.5 123.102 707.329 81.5727 754.664 72.7356C771.274 96.8245 781 126.026 781 157.5C781 200.661 762.71 239.55 733.457 266.84C697.029 251.275 671.5 215.119 671.5 173Z" fill="white"/>
<path d="M805.332 199.177C801.881 189.597 800 179.268 800 168.5C800 137.862 815.224 110.78 838.521 94.4069C858.143 110.659 871.579 134.119 874.769 160.729C871.583 160.249 868.321 160 865 160C838.277 160 815.321 176.126 805.332 199.177Z" fill="white"/>
<path fill-rule="evenodd" clip-rule="evenodd" d="M875.5 173C875.5 201.805 863.56 227.822 844.358 246.37C826.433 235.725 812.497 219.068 805.332 199.177C815.321 176.126 838.277 160 865 160C868.321 160 871.583 160.249 874.769 160.729C875.252 164.752 875.5 168.847 875.5 173Z" fill="white"/>
<path fill-rule="evenodd" clip-rule="evenodd" d="M844.358 246.37C835.807 254.63 825.817 261.409 814.799 266.293C805.553 255.065 800 240.681 800 225C800 215.824 801.901 207.092 805.332 199.177C812.497 219.068 826.433 235.725 844.358 246.37Z" fill="white"/>
<path fill-rule="evenodd" clip-rule="evenodd" d="M814.799 266.293C825.817 261.409 835.807 254.63 844.358 246.37C857.869 254.393 873.646 259 890.5 259C902.273 259 913.52 256.752 923.837 252.662C913.445 274.727 891.006 290 865 290C844.782 290 826.721 280.77 814.799 266.293Z" fill="white"/>
<path fill-rule="evenodd" clip-rule="evenodd" d="M890.5 259C873.646 259 857.869 254.393 844.358 246.37C863.56 227.822 875.5 201.805 875.5 173C875.5 168.847 875.252 164.752 874.769 160.729C906.033 165.442 930 192.422 930 225C930 234.892 927.79 244.269 923.837 252.662C913.52 256.752 902.273 259 890.5 259Z" fill="white"/>
<path fill-rule="evenodd" clip-rule="evenodd" d="M838.521 94.4069C853.229 84.0691 871.156 78 890.5 78C940.482 78 981 118.518 981 168.5C981 206.709 957.321 239.388 923.837 252.662C927.79 244.269 930 234.892 930 225C930 192.422 906.033 165.442 874.769 160.729C871.579 134.119 858.143 110.659 838.521 94.4069Z" fill="white"/>
</g>
</svg>
