<svg width="151" height="206" viewBox="0 0 151 206" fill="none" xmlns="http://www.w3.org/2000/svg">
<path d="M40.0415 206L40.3632 190.34L38.7551 189.856L40.0415 172.259L37.951 171.936L41.1672 156.922L39.3983 155.953L43.5793 142.876L41.4888 141.746L47.278 126.409L45.8307 125.44L52.5847 111.718L51.2982 109.942L57.7306 99.2868L56.7657 97.6724L65.4494 85.8872L64.4846 84.4342L67.8616 81.0439C64.3237 80.721 54.2571 81.2053 42.2929 85.7257L40.6848 87.663L39.3983 85.8872C35.6997 86.7482 26.63 90.2461 19.9404 97.3495C23.5318 91.3224 33.577 77.8473 45.0266 72.1646L46.4739 73.9404L48.082 70.5501C51.459 69.2586 59.0814 66.837 62.5548 67.4828C56.0153 61.8861 40.3953 50.6282 30.2322 50.3699L29.7497 48.594L26.8552 50.5313C21.2804 49.6703 8.10479 48.2388 0 49.4012C4.12744 44.827 17.4317 35.8401 37.6294 36.4859L38.4334 39.3918L41.328 36.6473C45.1338 36.7549 54.1284 39.1335 59.6603 47.7868C60.6787 44.4503 60.4643 35.937 51.459 28.5752L52.1022 26.1536H48.5644C44.169 20.234 33.2554 8.07207 24.7646 6.78054C29.1065 5.32756 40.3632 4.19746 50.655 11.3009C63.5197 20.1802 70.2737 37.2931 70.5953 46.1724C72.0426 42.8898 74.5834 34.6455 73.1683 27.9295L75.4196 28.2523L73.0075 24.8621C72.793 19.8036 71.7853 7.74922 69.4696 0C74.2403 1.18391 84.1355 9.23448 85.5506 31.9655L86.3546 48.594C96.4856 36.4859 123.244 13.658 149.231 19.2116C140.762 23.0862 123.019 32.7727 119.803 40.5219L115.944 39.7147L117.552 43.2665L108.386 50.5313L105.973 49.8856L106.617 52.7915L98.5761 62.1552C109.511 56.8814 135.016 50.0147 149.553 64.7382C143.764 64.6844 131.188 65.0288 127.2 66.837L124.788 65.0611L125.27 68.1285L116.587 69.9044C127.254 71.3035 149.07 82.7875 151 117.53C149.392 114.462 145.597 107.843 143.281 105.906L143.764 102.354L141.351 104.13C139.315 101.924 134.372 97.1558 130.899 95.7351L131.381 92.6677L128.004 94.2821C123.126 89.7618 109.897 80.6241 96.0032 80.2367C112.567 85.5104 142.316 108.65 128.808 159.02L121.894 136.096L124.145 130.284H119.803C117.873 124.902 113.178 113.429 109.833 110.588L112.084 107.036L107.581 108.489C106.509 106.067 103.754 101.03 101.31 100.255C103.347 108.059 105.845 127.765 99.541 144.168C98.2545 135.396 95.1348 116.916 92.9478 113.171L93.7519 108.973H91.5005C90.2677 101.655 86.0973 86.5007 79.279 84.4342L75.098 92.6677L73.8115 91.5376L68.9872 105.583L67.0575 104.292L63.5197 118.337L61.59 117.368L59.1778 131.575H57.2481L56.1225 147.074L54.5144 146.589V161.926L52.9063 161.603L54.0319 175.487L52.5847 176.133L55.1576 191.309L53.5495 191.793L56.6049 206H40.0415Z" fill="white"/>
</svg>
