<svg width="415" height="109" viewBox="0 0 415 109" fill="none" xmlns="http://www.w3.org/2000/svg">
<path fill-rule="evenodd" clip-rule="evenodd" d="M193.735 0H0V47.5379C5.31351 48.2154 10.4348 49.5197 15.2898 51.3756C20.8378 35.4292 35.8505 24 53.5 24C65.2523 24 75.8354 29.0675 83.2336 37.1618C95.4454 19.5257 115.646 8 138.5 8C151.811 8 164.223 11.9103 174.68 18.6606C179.565 11.1168 186.083 4.7296 193.735 0Z" fill="#B2E7FA"/>
<mask id="mask0_63_287" style="mask-type:alpha" maskUnits="userSpaceOnUse" x="0" y="0" width="207" height="109">
<path fill-rule="evenodd" clip-rule="evenodd" d="M206.633 109C204.144 108.184 201.727 107.211 199.393 106.093C198.929 107.075 198.442 108.044 197.934 109H206.633ZM0 0H193.735C186.083 4.7296 179.565 11.1168 174.68 18.6606C164.223 11.9103 151.811 8 138.5 8C115.646 8 95.4454 19.5257 83.2336 37.1618C75.8354 29.0675 65.2523 24 53.5 24C35.8505 24 20.8378 35.4292 15.2898 51.3756C10.4348 49.5197 5.31351 48.2154 0 47.5379V0Z" fill="#B2E7FA"/>
</mask>
<g mask="url(#mask0_63_287)">
<ellipse cx="53.5" cy="65" rx="56.5" ry="57" fill="#8EDCF8"/>
<ellipse cx="53.5" cy="65" rx="48.5" ry="49" fill="#55CAF5"/>
</g>
</svg>
