<svg width="31" height="24" viewBox="0 0 31 24" fill="none" xmlns="http://www.w3.org/2000/svg">
<g filter="url(#filter0_d_43_415)">
<path d="M23.8716 2.67497C22.0976 1.88121 20.2249 1.31809 18.3013 1C18.038 1.45992 17.7999 1.93311 17.5877 2.4176C15.5387 2.11582 13.4549 2.11582 11.4058 2.4176C11.1936 1.93316 10.9554 1.45997 10.6923 1C8.76737 1.32078 6.89343 1.88523 5.11772 2.67912C1.59247 7.77667 0.636837 12.7476 1.11466 17.648C3.17913 19.1388 5.48986 20.2725 7.9464 21C8.49954 20.2729 8.989 19.5015 9.40959 18.6941C8.61075 18.4025 7.83972 18.0427 7.10544 17.6189C7.29869 17.4819 7.4877 17.3408 7.67033 17.2038C9.80692 18.1859 12.1389 18.695 14.5 18.695C16.861 18.695 19.193 18.1859 21.3296 17.2038C21.5143 17.3512 21.7033 17.4923 21.8945 17.6189C21.1588 18.0434 20.3863 18.4038 19.5861 18.6961C20.0061 19.5032 20.4956 20.2739 21.0493 21C23.5079 20.2755 25.8204 19.1422 27.8852 17.6501C28.4459 11.9672 26.9275 7.04193 23.8716 2.67497ZM10.0148 14.6343C8.68331 14.6343 7.58326 13.4533 7.58326 12.0004C7.58326 10.5475 8.64508 9.35616 10.0106 9.35616C11.3761 9.35616 12.4676 10.5475 12.4443 12.0004C12.4209 13.4533 11.3718 14.6343 10.0148 14.6343ZM18.9851 14.6343C17.6514 14.6343 16.5556 13.4533 16.5556 12.0004C16.5556 10.5475 17.6175 9.35616 18.9851 9.35616C20.3527 9.35616 21.4358 10.5475 21.4124 12.0004C21.389 13.4533 20.3421 14.6343 18.9851 14.6343Z" fill="white"/>
</g>
<defs>
<filter id="filter0_d_43_415" x="0" y="0" width="31" height="24" filterUnits="userSpaceOnUse" color-interpolation-filters="sRGB">
<feFlood flood-opacity="0" result="BackgroundImageFix"/>
<feColorMatrix in="SourceAlpha" type="matrix" values="0 0 0 0 0 0 0 0 0 0 0 0 0 0 0 0 0 0 127 0" result="hardAlpha"/>
<feOffset dx="1" dy="1"/>
<feGaussianBlur stdDeviation="1"/>
<feComposite in2="hardAlpha" operator="out"/>
<feColorMatrix type="matrix" values="0 0 0 0 0 0 0 0 0 0 0 0 0 0 0 0 0 0 0.18 0"/>
<feBlend mode="normal" in2="BackgroundImageFix" result="effect1_dropShadow_43_415"/>
<feBlend mode="normal" in="SourceGraphic" in2="effect1_dropShadow_43_415" result="shape"/>
</filter>
</defs>
</svg>
