<svg width="19" height="19" viewBox="0 0 19 19" fill="none" xmlns="http://www.w3.org/2000/svg">
<path fill-rule="evenodd" clip-rule="evenodd" d="M8.05075 10.9493C8.47216 11.3501 8.47216 12.0079 8.05075 12.4088C7.64989 12.8096 6.99207 12.8096 6.59122 12.4088C5.62852 11.4446 5.0878 10.1379 5.0878 8.77537C5.0878 7.41289 5.62852 6.1061 6.59122 5.14196L10.2298 1.50341C11.1939 0.540715 12.5007 0 13.8632 0C15.2257 0 16.5324 0.540715 17.4966 1.50341C18.4593 2.46755 19 3.77434 19 5.13682C19 6.4993 18.4593 7.80609 17.4966 8.77024L15.9651 10.3017C15.9754 9.45889 15.8418 8.61606 15.554 7.81434L16.0371 7.32098C16.3252 7.03595 16.5539 6.6966 16.7101 6.32257C16.8662 5.94854 16.9466 5.54726 16.9466 5.14196C16.9466 4.73666 16.8662 4.33538 16.7101 3.96135C16.5539 3.58733 16.3252 3.24798 16.0371 2.96294C15.752 2.6748 15.4127 2.44605 15.0386 2.28993C14.6646 2.13382 14.2633 2.05343 13.858 2.05343C13.4527 2.05343 13.0515 2.13382 12.6774 2.28993C12.3034 2.44605 11.9641 2.6748 11.679 2.96294L8.05075 6.59122C7.76261 6.87625 7.53386 7.2156 7.37774 7.58963C7.22162 7.96366 7.14124 8.36493 7.14124 8.77024C7.14124 9.17554 7.22162 9.57681 7.37774 9.95084C7.53386 10.3249 7.76261 10.6642 8.05075 10.9493ZM10.9493 6.59122C11.3501 6.19036 12.0079 6.19036 12.4088 6.59122C13.3715 7.55536 13.9122 8.86215 13.9122 10.2246C13.9122 11.5871 13.3715 12.8939 12.4088 13.858L8.77024 17.4966C7.80609 18.4593 6.4993 19 5.13682 19C3.77434 19 2.46755 18.4593 1.50341 17.4966C0.540715 16.5324 0 15.2257 0 13.8632C0 12.5007 0.540715 11.1939 1.50341 10.2298L3.03489 8.69829C3.02461 9.54111 3.15823 10.3839 3.44603 11.1959L2.96294 11.679C2.6748 11.9641 2.44605 12.3034 2.28993 12.6774C2.13382 13.0515 2.05343 13.4527 2.05343 13.858C2.05343 14.2633 2.13382 14.6646 2.28993 15.0386C2.44605 15.4127 2.6748 15.752 2.96294 16.0371C3.24798 16.3252 3.58733 16.5539 3.96135 16.7101C4.33538 16.8662 4.73666 16.9466 5.14196 16.9466C5.54726 16.9466 5.94854 16.8662 6.32257 16.7101C6.6966 16.5539 7.03595 16.3252 7.32098 16.0371L10.9493 12.4088C11.2374 12.1238 11.4661 11.7844 11.6223 11.4104C11.7784 11.0363 11.8588 10.6351 11.8588 10.2298C11.8588 9.82446 11.7784 9.42319 11.6223 9.04916C11.4661 8.67513 11.2374 8.33578 10.9493 8.05075C10.8494 7.95721 10.7699 7.84418 10.7155 7.71866C10.6611 7.59313 10.633 7.45778 10.633 7.32098C10.633 7.18418 10.6611 7.04883 10.7155 6.92331C10.7699 6.79778 10.8494 6.68476 10.9493 6.59122Z" fill="white"/>
</svg>
