<svg width="18" height="18" viewBox="0 0 18 18" fill="none" xmlns="http://www.w3.org/2000/svg">
<path d="M0 4.86C0 3.57105 0.512034 2.33489 1.42346 1.42346C2.33489 0.512034 3.57105 0 4.86 0C5.184 0 5.49 0.198 5.607 0.495L7.344 4.671C7.42742 4.8735 7.43414 5.09947 7.36289 5.30656C7.29165 5.51366 7.14734 5.68767 6.957 5.796L4.5 7.2C4.76314 8.77546 5.51169 10.2294 6.64114 11.3589C7.77058 12.4883 9.22454 13.2369 10.8 13.5L11.808 11.484C11.9031 11.2929 12.063 11.1419 12.2592 11.0578C12.4554 10.9737 12.675 10.9621 12.879 11.025L17.433 12.429C17.775 12.528 18 12.843 18 13.194C18 15.84 15.84 18 13.194 18H12.861C5.751 18 0 12.24 0 5.139V4.86Z" fill="white"/>
</svg>
