<svg width="17" height="17" viewBox="0 0 17 17" fill="none" xmlns="http://www.w3.org/2000/svg">
<path d="M15.1111 0H10.3889V1.88889H15.1111V6.61111H17V1.88889C17 1.38792 16.801 0.907478 16.4468 0.553243C16.0925 0.199007 15.6121 0 15.1111 0Z" fill="white"/>
<path d="M15.1111 15.1111H10.3889V17H15.1111C15.6121 17 16.0925 16.801 16.4468 16.4468C16.801 16.0925 17 15.6121 17 15.1111V10.3889H15.1111V15.1111Z" fill="white"/>
<path d="M0 1.88889V6.61111H1.88889V1.88889H6.61111V0H1.88889C1.38792 0 0.907478 0.199007 0.553243 0.553243C0.199007 0.907478 0 1.38792 0 1.88889Z" fill="white"/>
<path d="M1.88889 10.3889H0V15.1111C0 15.6121 0.199007 16.0925 0.553243 16.4468C0.907478 16.801 1.38792 17 1.88889 17H6.61111V15.1111H1.88889V10.3889Z" fill="white"/>
</svg>
