<svg width="19" height="10" viewBox="0 0 19 10" fill="none" xmlns="http://www.w3.org/2000/svg">
<path d="M17.5922 3.48391C18.3929 4.28463 18.8428 5.37065 18.8428 6.50305C18.8428 7.63545 18.3929 8.72147 17.5922 9.5222C17.3909 9.72347 17.0778 9.79057 16.8206 9.67875L13.1473 8.16358C12.9697 8.08961 12.8252 7.9534 12.7408 7.78049C12.6564 7.60758 12.6379 7.40983 12.6889 7.22429L13.343 4.82575C12.2008 4.0105 10.8326 3.57229 9.4293 3.57229C8.02603 3.57229 6.65777 4.0105 5.5156 4.82575L6.14179 6.70433C6.20141 6.88211 6.19591 7.07529 6.12627 7.24939C6.05663 7.4235 5.92738 7.56718 5.7616 7.6548L2.06035 9.61165C1.78639 9.76261 1.45093 9.7067 1.23288 9.48865C-0.410876 7.84489 -0.410876 5.16121 1.23288 3.51745L1.43975 3.31058C5.85665 -1.10631 13.0076 -1.10072 17.4189 3.31058L17.5922 3.48391Z" fill="white"/>
</svg>
