<svg width="18" height="17" viewBox="0 0 18 17" fill="none" xmlns="http://www.w3.org/2000/svg">
<path d="M5.66553 16.6546C6.21781 16.6546 6.66553 16.2069 6.66553 15.6546V11.6546C6.66553 11.1023 7.11324 10.6546 7.66553 10.6546H9.66553C10.2178 10.6546 10.6655 11.1023 10.6655 11.6546V15.6546C10.6655 16.2069 11.1132 16.6546 11.6655 16.6546H14.6655C15.2178 16.6546 15.6655 16.2069 15.6655 15.6546V9.48659C15.6655 9.02711 16.038 8.65463 16.4975 8.65463C17.26 8.65463 17.6208 7.71436 17.054 7.20429L9.33449 0.256701C8.95419 -0.0855734 8.37687 -0.0855736 7.99656 0.256701L0.277022 7.20429C-0.289721 7.71436 0.0710962 8.65463 0.833571 8.65463C1.29305 8.65463 1.66553 9.02711 1.66553 9.48659V15.6546C1.66553 16.2069 2.11324 16.6546 2.66553 16.6546H5.66553Z" fill="#00AFF0"/>
</svg>
