<svg width="15" height="15" viewBox="0 0 15 15" fill="none" xmlns="http://www.w3.org/2000/svg">
<path d="M3.14226 0.288355C3.28764 0.102178 3.51087 -0.00305145 3.74332 7.34812e-05C3.78655 -0.000310779 3.83003 0.00299407 3.87329 0.0102029C3.87324 0.0101953 3.87331 0.0102071 3.87329 0.0102029C3.87346 0.0102309 3.87386 0.0103062 3.8743 0.0103787C3.87517 0.0105238 3.87659 0.0107422 3.87852 0.0110598C3.88239 0.0116977 3.88835 0.0126839 3.89632 0.0139822C3.91225 0.0165808 3.93621 0.0204617 3.96744 0.0254299C4.02992 0.0353693 4.12146 0.049676 4.23623 0.0668924C4.46598 0.101355 4.78789 0.147349 5.1555 0.193301C5.75757 0.26856 6.46199 0.341072 7.08065 0.36594C7.08751 0.366215 7.09436 0.366468 7.1012 0.366731C7.23923 0.372059 7.37286 0.374993 7.49998 0.374993L7.56631 0.374751C8.25749 0.369456 9.1242 0.283333 9.84446 0.193301C10.2121 0.147349 10.534 0.101355 10.7637 0.0668924C10.8785 0.049676 10.97 0.0353693 11.0325 0.0254299C11.0637 0.0204617 11.0877 0.0165808 11.1036 0.0139822C11.1116 0.0126838 11.1176 0.0116977 11.1214 0.0110598C11.1234 0.0107421 11.1248 0.0105238 11.1257 0.0103787C11.4002 -0.0353735 11.6785 0.0744674 11.8469 0.295979L13.6033 2.60539L13.6054 2.60816C14.0302 3.17218 14.2871 3.84439 14.3459 4.54771L14.9922 12.2683L14.9951 12.3069C15.0216 12.706 14.9408 13.1049 14.7611 13.4627L14.6133 13.7573C14.2302 14.5201 13.4484 15 12.5954 15H2.40457C1.55158 15 0.769818 14.5202 0.38676 13.7574L0.238818 13.4628C0.0533327 13.0935 -0.0266598 12.6802 0.00782017 12.2683L0.654035 4.54771C0.7129 3.84442 0.969697 3.17219 1.3946 2.60814L3.1343 0.298726L3.14226 0.288355ZM11.5033 8.42527C11.2907 8.48167 11.0386 8.54444 10.7564 8.60714C9.88447 8.80091 8.70058 9.00001 7.49998 9.00001C6.29937 9.00001 5.11548 8.80091 4.24353 8.60714C3.96137 8.54444 3.70924 8.48167 3.49661 8.42527L1.95631 13.3542C2.0836 13.447 2.23971 13.5 2.40457 13.5H12.5954C12.7602 13.5 12.9163 13.447 13.0436 13.3542L11.5033 8.42527ZM2.5927 3.51067C2.34173 3.84382 2.18886 4.23935 2.15055 4.65311L2.14881 4.67282L1.80164 8.82014L2.26254 7.34529L2.70522 3.36128L2.5927 3.51067ZM12.7374 7.34529L13.1983 8.82014L12.8511 4.67282C12.816 4.25251 12.6626 3.85019 12.4083 3.51201L12.2949 3.36295L12.7374 7.34529ZM10.5906 1.60751C10.4221 1.63104 10.233 1.65639 10.0305 1.68171C9.27399 1.77627 8.29854 1.875 7.49998 1.875C7.47503 1.875 7.4499 1.8749 7.42461 1.87472C6.64058 1.86884 5.69831 1.77335 4.96164 1.68177C4.76233 1.657 4.57595 1.63221 4.40913 1.60911L3.81486 6.95767C4.02264 7.01371 4.27827 7.07827 4.56894 7.14286C5.38448 7.32409 6.45059 7.5 7.49998 7.5C8.54937 7.5 9.61548 7.32409 10.431 7.14286C10.7217 7.07827 10.9773 7.01371 11.1851 6.95767L10.5906 1.60751Z" fill="white"/>
<path d="M10.5906 1.60751C10.4221 1.63104 10.233 1.65639 10.0305 1.68171C9.27399 1.77627 8.29854 1.875 7.49998 1.875C7.47503 1.875 7.4499 1.8749 7.42461 1.87472C6.64058 1.86884 5.69831 1.77335 4.96164 1.68177C4.76233 1.657 4.57595 1.63221 4.40913 1.60911L3.81486 6.95767C4.02264 7.01371 4.27827 7.07827 4.56894 7.14286C5.38448 7.32409 6.45059 7.5 7.49998 7.5C8.54937 7.5 9.61548 7.32409 10.431 7.14286C10.7217 7.07827 10.9773 7.01371 11.1851 6.95767L10.5906 1.60751Z" fill="white"/>
<path d="M2.5927 3.51067C2.34173 3.84382 2.18886 4.23935 2.15055 4.65311L2.14881 4.67282L1.80164 8.82014L2.26254 7.34529L2.70522 3.36128L2.5927 3.51067Z" fill="white"/>
<path d="M12.7374 7.34529L13.1983 8.82014L12.8511 4.67282C12.816 4.25251 12.6626 3.85019 12.4083 3.51201L12.2949 3.36295L12.7374 7.34529Z" fill="white"/>
</svg>
