<svg width="19" height="5" viewBox="0 0 19 5" fill="none" xmlns="http://www.w3.org/2000/svg">
<path fill-rule="evenodd" clip-rule="evenodd" d="M4.75 2.5C4.75 3.88071 3.68668 5 2.375 5C1.06332 5 -1.69631e-07 3.88071 -1.09278e-07 2.5C-4.89256e-08 1.11929 1.06332 -7.84037e-07 2.375 -7.26702e-07C3.68668 -6.69367e-07 4.75 1.11929 4.75 2.5ZM11.875 2.5C11.875 3.88071 10.8117 5 9.5 5C8.18832 5 7.125 3.88071 7.125 2.5C7.125 1.11929 8.18832 -4.72593e-07 9.5 -4.15258e-07C10.8117 -3.57923e-07 11.875 1.11929 11.875 2.5ZM19 2.5C19 3.88071 17.9367 5 16.625 5C15.3133 5 14.25 3.88071 14.25 2.5C14.25 1.11929 15.3133 -1.6115e-07 16.625 -1.03815e-07C17.9367 -4.64794e-08 19 1.11929 19 2.5Z" fill="white"/>
</svg>
