<svg width="20" height="16" viewBox="0 0 20 16" fill="none" xmlns="http://www.w3.org/2000/svg">
<path fill-rule="evenodd" clip-rule="evenodd" d="M12 4C12 6.20502 10.206 8.00002 8 8.00002C5.795 8.00002 4 6.20502 4 4C4 1.795 5.794 0 8 0C10.206 0 12 1.795 12 4ZM0 15C0 11.467 3.29 9.00002 8 9.00002C12.711 9.00002 16 11.467 16 15V16H0V15Z" fill="white"/>
<path fill-rule="evenodd" clip-rule="evenodd" d="M12 4C12 6.20502 10.206 8.00002 8 8.00002C5.795 8.00002 4 6.20502 4 4C4 1.795 5.794 0 8 0C10.206 0 12 1.795 12 4ZM0 15C0 11.467 3.29 9.00002 8 9.00002C12.711 9.00002 16 11.467 16 15V16H0V15Z" fill="white"/>
<path d="M18.0001 16H20.0001V15C20.0001 12.4373 18.2697 10.4355 15.5213 9.52922C17.0621 10.9067 18.0001 12.7999 18.0001 15V16Z" fill="white"/>
<path d="M12.8834 7.90172C14.6657 7.49842 16.0001 5.90172 16.0001 4C16.0001 1.96318 14.4693 0.2762 12.4971 0.0307198C13.4322 1.08913 14.0001 2.47926 14.0001 4C14.0001 5.4429 13.4889 6.76822 12.6378 7.80422C12.7203 7.83582 12.8022 7.86832 12.8834 7.90172Z" fill="white"/>
</svg>
