<svg width="26" height="25" viewBox="0 0 26 25" fill="none" xmlns="http://www.w3.org/2000/svg">
<path d="M13.4724 13.3302L2.85756 14.3483L0.0642826 23.2115C-0.102268 23.7355 0.0611102 24.3083 0.481431 24.6672C0.900164 25.0259 1.495 25.1014 1.99308 24.8607L25.2561 13.6843C25.7114 13.464 26 13.0061 26 12.504C26 12.002 25.7112 11.5441 25.2561 11.3237L2.00892 0.139337C1.51085 -0.10144 0.916041 -0.0259023 0.497268 0.332903C0.0769112 0.691711 -0.0864481 1.26296 0.080119 1.78701L2.87338 10.6501L13.4676 11.6698C13.8958 11.7123 14.2226 12.0696 14.2226 12.496C14.2226 12.9225 13.8959 13.2797 13.4676 13.3222L13.4724 13.3302Z" fill="#9BE0F9"/>
</svg>
